<svg width="9" height="12" viewBox="0 0 9 12" fill="none" xmlns="http://www.w3.org/2000/svg">
<g clip-path="url(#clip0_1_1465)">
<path d="M4.55103 12H4.43356C4.40505 11.9756 4.37404 11.9537 4.34836 11.9266C4.04482 11.6084 3.73658 11.2944 3.44024 10.97C3.18557 10.6909 2.93246 10.4091 2.70003 10.1119C2.31379 9.61781 1.93194 9.11938 1.57139 8.60656C1.18609 8.05844 0.857492 7.47375 0.581832 6.86281C0.305232 6.24969 0.068101 5.62031 0.0208001 4.9425C-0.00332016 4.59625 -0.0108382 4.24438 0.0239326 3.9C0.0615227 3.52813 0.177739 3.16906 0.317135 2.81844C0.522314 2.30125 0.819902 1.84594 1.19486 1.43906C1.61399 0.984375 2.10517 0.622813 2.67748 0.3875C2.97726 0.264062 3.29552 0.184687 3.60877 0.0959375C3.76258 0.0515625 3.92327 0.0309375 4.08115 0C4.34742 0 4.61368 0 4.87994 0C5.03406 0.03125 5.18693 0.0690625 5.34199 0.0925C5.74921 0.154063 6.13169 0.292813 6.49819 0.471875C7.07176 0.751875 7.55385 1.14906 7.96734 1.635C8.3022 2.02813 8.54497 2.47219 8.73198 2.94812C8.87389 3.30969 8.95001 3.69 8.98822 4.07469C9.01109 4.30281 8.99449 4.53531 8.99073 4.76562C8.98885 4.87687 8.99198 4.99219 8.96567 5.09875C8.87138 5.48 8.78273 5.86406 8.66025 6.23656C8.41372 6.98594 8.02717 7.66938 7.60428 8.33125C7.1839 8.98938 6.72687 9.62156 6.21345 10.2113C5.83254 10.6488 5.44442 11.0803 5.05286 11.5081C4.89498 11.6806 4.71893 11.8366 4.55103 12ZM2.4369 4.5C2.40025 5.58094 3.3707 6.63031 4.60616 6.56563C5.54027 6.51656 6.69084 5.67844 6.54831 4.26937C6.45121 3.30844 5.64678 2.44187 4.4699 2.44187C3.34564 2.44187 2.42594 3.35938 2.4369 4.49969V4.5Z" fill="#009046"/>
</g>
<defs>
<clipPath id="clip0_1_1465">
<rect width="9" height="12" fill="white"/>
</clipPath>
</defs>
</svg>
