<svg width="18" height="13" viewBox="0 0 18 13" fill="none" xmlns="http://www.w3.org/2000/svg">
<path d="M17.1492 3.09521C17.1492 3.09521 16.9834 1.92427 16.4726 1.41012C15.8257 0.733434 15.1026 0.730117 14.7709 0.690311C12.3958 0.517822 8.82995 0.517822 8.82995 0.517822H8.82332C8.82332 0.517822 5.25743 0.517822 2.88239 0.690311C2.55068 0.730117 1.82755 0.733434 1.18072 1.41012C0.669881 1.92427 0.507343 3.09521 0.507343 3.09521C0.507343 3.09521 0.334854 4.47181 0.334854 5.84509V7.13212C0.334854 8.5054 0.504026 9.882 0.504026 9.882C0.504026 9.882 0.669881 11.0529 1.1774 11.5671C1.82423 12.2438 2.67341 12.2206 3.05156 12.2935C4.41157 12.4229 8.82664 12.4627 8.82664 12.4627C8.82664 12.4627 12.3958 12.4561 14.7709 12.2869C15.1026 12.2471 15.8257 12.2438 16.4726 11.5671C16.9834 11.0529 17.1492 9.882 17.1492 9.882C17.1492 9.882 17.3184 8.50872 17.3184 7.13212V5.84509C17.3184 4.47181 17.1492 3.09521 17.1492 3.09521ZM7.07189 8.69448V3.92117L11.6594 6.31612L7.07189 8.69448Z" fill="black"/>
</svg>
